HIERARCHY
ROOT hip
{
  OFFSET 0 0 0
  CHANNELS 6 Xposition Yposition Zposition Zrotation Yrotation Xrotation
  JOINT abdomen
  {
    OFFSET 0 20.6881 -0.73152
    CHANNELS 3 Zrotation Xrotation Yrotation
    JOINT chest
    {
      OFFSET 0 11.7043 -0.48768
      CHANNELS 3 Zrotation Xrotation Yrotation
      JOINT neck
      {
        OFFSET 0 22.1894 -2.19456
        CHANNELS 3 Zrotation Xrotation Yrotation
        JOINT head
        {
          OFFSET -0.24384 7.07133 1.2192
          CHANNELS 3 Zrotation Xrotation Yrotation
          JOINT leftEye
          {
            OFFSET 4.14528 8.04674 8.04672
            CHANNELS 3 Zrotation Xrotation Yrotation
            End Site
            {
              OFFSET 1 0 0
            }
          }
          JOINT rightEye
          {
            OFFSET -3.6576 8.04674 8.04672
            CHANNELS 3 Zrotation Xrotation Yrotation
            End Site
            {
              OFFSET 1 0 0
            }
          }
        }
      }
      JOINT rCollar
      {
        OFFSET -2.68224 19.2634 -4.8768
        CHANNELS 3 Zrotation Xrotation Yrotation
        JOINT rShldr
        {
          OFFSET -8.77824 -1.95073 1.46304
          CHANNELS 3 Zrotation Xrotation Yrotation
          JOINT rForeArm
          {
            OFFSET -28.1742 -1.7115 0.48768
            CHANNELS 3 Zrotation Xrotation Yrotation
            JOINT rHand
            {
              OFFSET -22.5879 0.773209 7.07136
              CHANNELS 3 Zrotation Xrotation Yrotation
              JOINT rThumb1
              {
                OFFSET -1.2192 -0.487915 3.41376
                CHANNELS 3 Zrotation Xrotation Yrotation
                JOINT rThumb2
                {
                  OFFSET -3.37035 -0.52449 3.41376
                  CHANNELS 3 Zrotation Xrotation Yrotation
                  End Site
                  {
                    OFFSET -1.78271 -1.18214 1.43049
                  }
                }
              }
              JOINT rIndex1
              {
                OFFSET -7.75947 0.938293 5.60832
                CHANNELS 3 Zrotation Xrotation Yrotation
                JOINT rIndex2
                {
                  OFFSET -2.54057 -0.884171 1.56538
                  CHANNELS 3 Zrotation Xrotation Yrotation
                  End Site
                  {
                    OFFSET -1.62519 -0.234802 1.16502
                  }
                }
              }
              JOINT rMid1
              {
                OFFSET -8.24714 1.18213 3.41376
                CHANNELS 3 Zrotation Xrotation Yrotation
                JOINT rMid2
                {
                  OFFSET -3.10165 -0.590103 1.0647
                  CHANNELS 3 Zrotation Xrotation Yrotation
                  End Site
                  {
                    OFFSET -2.48547 -0.328903 0.83742
                  }
                }
              }
              JOINT rRing1
              {
                OFFSET -8.82822 0.546677 1.51678
                CHANNELS 3 Zrotation Xrotation Yrotation
                JOINT rRing2
                {
                  OFFSET -2.60934 -0.819778 -0.0198488
                  CHANNELS 3 Zrotation Xrotation Yrotation
                  End Site
                  {
                    OFFSET -2.33842 -0.294052 0.168128
                  }
                }
              }
              JOINT rPinky1
              {
                OFFSET -8.27202 -0.0477905 -0.4584
                CHANNELS 3 Zrotation Xrotation Yrotation
                JOINT rPinky2
                {
                  OFFSET -1.82734 -0.647385 -0.700984
                  CHANNELS 3 Zrotation Xrotation Yrotation
                  End Site
                  {
                    OFFSET -1.69225 -0.51767 -0.607171
                  }
                }
              }
            }
          }
        }
      }
      JOINT lCollar
      {
        OFFSET 2.68224 19.2634 -4.8768
        CHANNELS 3 Zrotation Xrotation Yrotation
        JOINT lShldr
        {
          OFFSET 8.77824 -1.95073 1.46304
          CHANNELS 3 Zrotation Xrotation Yrotation
          JOINT lForeArm
          {
            OFFSET 28.1742 -1.7115 0.48768
            CHANNELS 3 Zrotation Xrotation Yrotation
            JOINT lHand
            {
              OFFSET 22.5879 0.773209 7.07136
              CHANNELS 3 Zrotation Xrotation Yrotation
              JOINT lThumb1
              {
                OFFSET 1.2192 -0.487915 3.41376
                CHANNELS 3 Zrotation Xrotation Yrotation
                JOINT lThumb2
                {
                  OFFSET 3.37035 -0.52449 3.41376
                  CHANNELS 3 Zrotation Xrotation Yrotation
                  End Site
                  {
                    OFFSET 1.78271 -1.18214 1.43049
                  }
                }
              }
              JOINT lIndex1
              {
                OFFSET 7.75947 0.938293 5.60832
                CHANNELS 3 Zrotation Xrotation Yrotation
                JOINT lIndex2
                {
                  OFFSET 2.54057 -0.884171 1.56538
                  CHANNELS 3 Zrotation Xrotation Yrotation
                  End Site
                  {
                    OFFSET 1.62519 -0.234802 1.16502
                  }
                }
              }
              JOINT lMid1
              {
                OFFSET 8.24714 1.18213 3.41376
                CHANNELS 3 Zrotation Xrotation Yrotation
                JOINT lMid2
                {
                  OFFSET 3.10165 -0.590103 1.0647
                  CHANNELS 3 Zrotation Xrotation Yrotation
                  End Site
                  {
                    OFFSET 2.48547 -0.328903 0.83742
                  }
                }
              }
              JOINT lRing1
              {
                OFFSET 8.82822 0.546677 1.51678
                CHANNELS 3 Zrotation Xrotation Yrotation
                JOINT lRing2
                {
                  OFFSET 2.60934 -0.819778 -0.0198488
                  CHANNELS 3 Zrotation Xrotation Yrotation
                  End Site
                  {
                    OFFSET 2.33842 -0.294052 0.168128
                  }
                }
              }
              JOINT lPinky1
              {
                OFFSET 8.27202 -0.0477905 -0.4584
                CHANNELS 3 Zrotation Xrotation Yrotation
                JOINT lPinky2
                {
                  OFFSET 1.82734 -0.647385 -0.700984
                  CHANNELS 3 Zrotation Xrotation Yrotation
                  End Site
                  {
                    OFFSET 1.69225 -0.51767 -0.607171
                  }
                }
              }
            }
          }
        }
      }
    }
  }
  JOINT rButtock
  {
    OFFSET -8.77824 4.35084 1.2192
    CHANNELS 3 Zrotation Xrotation Yrotation
    JOINT rThigh
    {
      OFFSET 0 -1.70687 -2.19456
      CHANNELS 3 Zrotation Xrotation Yrotation
      JOINT rShin
      {
        OFFSET 0 -36.8199 0.73152
        CHANNELS 3 Zrotation Xrotation Yrotation
        JOINT rFoot
        {
          OFFSET 0.73152 -45.1104 -5.12064
          CHANNELS 3 Zrotation Xrotation Yrotation
          End Site
          {
            OFFSET -1.1221 -3.69964 12.103
          }
        }
      }
    }
  }
  JOINT lButtock
  {
    OFFSET 8.77824 4.35084 1.2192
    CHANNELS 3 Zrotation Xrotation Yrotation
    JOINT lThigh
    {
      OFFSET 0 -1.70687 -2.19456
      CHANNELS 3 Zrotation Xrotation Yrotation
      JOINT lShin
      {
        OFFSET 0 -36.8199 0.73152
        CHANNELS 3 Zrotation Xrotation Yrotation
        JOINT lFoot
        {
          OFFSET -0.73152 -45.1104 -5.12064
          CHANNELS 3 Zrotation Xrotation Yrotation
          End Site
          {
            OFFSET 1.1221 -3.69964 12.103
          }
        }
      }
    }
  }
}
MOTION
Frames:	9
Frame Time:	0.00833333
-4.08128 84.2564 38.2065 0.0 0.0 0.0 -1.24151 -0.00398118 -0.0340789 -0.342494 -0.00249263 -0.0593272 4.97438e-14 1.59028e-15 3.10601e-16 1.49536e-13 9.54166e-15 8.89872e-16 -0.0 0.0 0.0 -0.0 0.0 0.0 2.50967e-14 1.14534e-16 1.98785e-16 5.24074e-13 2.87617e-15 5.96354e-15 9.00465e-12 -2.60885e-12 -2.22639e-14 1.03006e-10 3.14944e-12 7.53791e-13 2.42987e-10 1.16956e-12 1.57119e-12 4.19621e-10 2.01647e-12 2.70506e-12 2.42994e-10 1.17164e-12 1.56165e-12 7.73091 5.47488 0.417314 2.42986e-10 1.16965e-12 1.57756e-12 2.90554 0.965183 0.102902 2.42992e-10 1.16985e-12 1.57437e-12 10.2786 0.731801 0.0259123 2.42977e-10 1.17164e-12 1.58392e-12 2.22167 -0.733487 -0.20892 2.48993e-14 1.15505e-16 0.0 5.21444e-13 2.68359e-15 3.77691e-15 8.99993e-12 2.77802e-12 -3.49861e-14 1.03022e-10 -2.25963e-12 7.66514e-13 2.43011e-10 1.12195e-12 1.57437e-12 4.19672e-10 1.93378e-12 2.71063e-12 2.43002e-10 1.12552e-12 1.58074e-12 -7.73091 5.47488 -0.417314 2.43011e-10 1.12204e-12 1.57437e-12 -2.90554 0.965183 -0.102902 2.43007e-10 1.12184e-12 1.57119e-12 -10.2786 0.731801 -0.0259123 2.4302e-10 1.12433e-12 1.56165e-12 -2.22167 -0.733487 0.20892 -2.03217e-16 0.0 -3.88251e-19 -0.453816 -1.92099 -0.00952752 -0.00915578 -2.07857 -0.0755537 -0.487479 3.99699 0.136657 2.03217e-16 0.0 3.88251e-19 -1.43726 -5.97115 0.129661 -0.00126436 5.25796 -0.0454149 0.5078 0.710742 -0.0722722
-4.82428 84.0488 37.2225 -2.1696 -2.7389 0.7366 -1.25193 0.707145 0.487216 0.215165 -1.003 0.11566 -0.288574 0.760412 -0.330338 1.43157 -1.04859 -0.541099 -0.0 0.0 0.0 -0.0 0.0 0.0 4.53886e-14 1.60832e-15 -3.18098e-14 20.9254 12.4617 -0.51455 -4.65537 -2.20983 7.1658 0.00279597 -1.17304 -0.164735 -1.32676e-10 3.13888e-10 -2.00192e-11 -2.29852e-10 5.42988e-10 -3.4547e-11 -1.32672e-10 3.13892e-10 -2.0027e-11 7.73091 5.47488 0.417314 -1.32676e-10 3.13889e-10 -2.00128e-11 2.90554 0.965183 0.102902 -1.32669e-10 3.13889e-10 -2.00166e-11 10.2786 0.731801 0.0259123 -1.32683e-10 3.1389e-10 -2.00073e-11 2.22167 -0.733487 -0.20892 4.52555e-14 1.60681e-15 -3.20552e-14 -22.9367 7.02596 2.5907 6.28228 -3.4352 -9.09974 -0.00510831 1.5855 -0.222519 8.28863e-11 -3.0428e-11 -2.59402e-10 1.42051e-10 -5.29311e-11 -4.48706e-10 8.28779e-11 -3.04252e-11 -2.59396e-10 -7.73091 5.47488 -0.417314 8.28869e-11 -3.04278e-11 -2.59402e-10 -2.90554 0.965183 -0.102902 8.28809e-11 -3.04278e-11 -2.59405e-10 -10.2786 0.731801 -0.0259123 8.28956e-11 -3.04256e-11 -2.59414e-10 -2.22167 -0.733487 0.20892 -2.03217e-16 0.0 -3.88251e-19 -1.67527 -0.068295 0.842046 -0.00544898 -1.53646 -0.0499424 -0.51809 -0.402597 -2.57629 2.03217e-16 0.0 3.88251e-19 1.32332 -6.46185 -0.973466 -0.0098423 9.9451 -0.164449 0.81238 -4.30457 3.26594
-4.82678 84.0481 37.2222 -2.1764 -2.7455 0.742 -1.27732 1.4559 1.04112 0.810944 -2.05803 0.301481 -0.582054 1.56779 -0.679211 2.91998 -2.16181 -1.11296 -0.0 0.0 0.0 -0.0 0.0 0.0 6.74661e-14 3.18041e-15 -6.56766e-14 43.3158 25.6298 -1.14683 -8.98119 -4.43106 14.7757 -0.00158677 -2.41133 -0.338868 -5.42156e-10 6.5053e-10 -3.67533e-11 -9.37811e-10 1.12536e-09 -6.33997e-11 -5.42156e-10 6.50537e-10 -3.67593e-11 7.73091 5.47488 0.417314 -5.42157e-10 6.50533e-10 -3.67469e-11 2.90554 0.965183 0.102902 -5.42148e-10 6.50532e-10 -3.67515e-11 10.2786 0.731801 0.0259123 -5.42162e-10 6.50533e-10 -3.67424e-11 2.22167 -0.733487 -0.20892 6.74013e-14 3.1762e-15 -6.59748e-14 -47.8955 14.4045 5.4617 11.7502 -6.77663 -18.8206 0.00290267 3.26191 -0.458376 -8.70985e-11 -6.86284e-11 -5.3982e-10 -1.52675e-10 -1.19326e-10 -9.33765e-10 -8.71067e-11 -6.86263e-11 -5.39814e-10 -7.73091 5.47488 -0.417314 -8.70969e-11 -6.86279e-11 -5.3982e-10 -2.90554 0.965183 -0.102902 -8.71061e-11 -6.86277e-11 -5.39821e-10 -10.2786 0.731801 -0.0259123 -8.7089e-11 -6.86258e-11 -5.39832e-10 -2.22167 -0.733487 0.20892 -2.03217e-16 0.0 -3.88251e-19 -3.02663 1.88927 1.74571 -0.00205708 -0.963572 -0.0228833 -1.00416 -5.03106 -5.46544 2.03217e-16 0.0 3.88251e-19 4.22011 -6.97611 -2.14287 0.00297759 14.8993 -0.295353 1.77702 -9.55434 6.87411
-4.82998 84.0458 37.2068 -2.1867 -2.7548 0.7614 -1.31159 2.12872 1.53075 1.34884 -3.00393 0.466221 -0.8394 2.28093 -0.991712 4.23523 -3.14463 -1.62547 -0.0 0.0 0.0 -0.0 0.0 0.0 8.59723e-14 4.59591e-15 -9.5827e-14 63.5945 37.3713 -1.89675 -12.3429 -6.2156 21.6147 -0.0118806 -3.51901 -0.495036 -8.84001e-10 9.39324e-10 -6.31999e-11 -1.5288e-09 1.62493e-09 -1.09051e-10 -8.84004e-10 9.39333e-10 -6.32042e-11 7.73091 5.47488 0.417314 -8.84001e-10 9.39328e-10 -6.31935e-11 2.90554 0.965183 0.102902 -8.83991e-10 9.39326e-10 -6.31986e-11 10.2786 0.731801 0.0259123 -8.84004e-10 9.39327e-10 -6.31897e-11 2.22167 -0.733487 -0.20892 8.59681e-14 4.58941e-15 -9.61656e-14 -70.8236 20.8993 8.26059 15.6757 -9.2675 -27.6407 0.0217282 4.7562 -0.669606 -2.37363e-10 -9.35279e-11 -7.81356e-10 -4.13191e-10 -1.62661e-10 -1.35154e-09 -2.37371e-10 -9.35267e-11 -7.8135e-10 -7.73091 5.47488 -0.417314 -2.37361e-10 -9.35275e-11 -7.81356e-10 -2.90554 0.965183 -0.102902 -2.37372e-10 -9.35271e-11 -7.81356e-10 -10.2786 0.731801 -0.0259123 -2.37353e-10 -9.35253e-11 -7.81367e-10 -2.22167 -0.733487 0.20892 -2.03217e-16 0.0 -3.88251e-19 -4.28356 3.63347 2.55031 0.000511041 -0.452229 0.00123468 -1.83596 -9.11265 -8.10429 2.03217e-16 0.0 3.88251e-19 6.78741 -7.4346 -3.18657 0.0347689 19.319 -0.419083 3.21042 -14.1372 10.2276
-4.83436 84.0461 37.1922 -2.2086 -2.7504 0.7493 -1.34056 2.61234 1.85882 1.72901 -3.67712 0.577686 -1.02513 2.75878 -1.21261 5.15991 -3.80255 -1.98749 -0.0 0.0 0.0 -0.0 0.0 0.0 9.55501e-14 5.61994e-15 -1.16687e-13 77.983 45.5592 -2.62117 -14.4255 -7.30303 26.4143 -0.0227337 -4.30026 -0.60551 -1.05676e-09 1.1085e-09 -1.13927e-10 -1.82735e-09 1.91748e-09 -1.96699e-10 -1.05676e-09 1.10851e-09 -1.13931e-10 7.73091 5.47488 0.417314 -1.05676e-09 1.1085e-09 -1.13921e-10 2.90554 0.965183 0.102902 -1.05674e-09 1.1085e-09 -1.13927e-10 10.2786 0.731801 0.0259123 -1.05676e-09 1.1085e-09 -1.13918e-10 2.22167 -0.733487 -0.20892 9.55877e-14 5.61217e-15 -1.17034e-13 -87.2172 25.3543 10.4154 17.9388 -10.6211 -33.8831 0.0413714 5.79545 -0.817314 -3.38325e-10 -8.51752e-11 -9.25688e-10 -5.88178e-10 -1.48347e-10 -1.60111e-09 -3.38334e-10 -8.51757e-11 -9.25681e-10 -7.73091 5.47488 -0.417314 -3.38324e-10 -8.51759e-11 -9.25688e-10 -2.90554 0.965183 -0.102902 -3.38336e-10 -8.51754e-11 -9.25688e-10 -10.2786 0.731801 -0.0259123 -3.38316e-10 -8.51729e-11 -9.25697e-10 -2.22167 -0.733487 0.20892 -2.03217e-16 0.0 -3.88251e-19 -5.1869 4.84809 3.10099 0.00204452 -0.0947452 0.0180253 -2.64278 -11.9191 -9.99835 2.03217e-16 0.0 3.88251e-19 8.57103 -7.76032 -3.91099 0.0693419 22.403 -0.510625 4.53708 -17.2444 12.6662
-4.83621 84.0482 37.1804 -2.2349 -2.7028 0.713 -1.34988 2.83504 1.95901 1.88309 -3.97182 0.613907 -1.12305 2.90226 -1.30623 5.56388 -3.99663 -2.13975 -0.0 0.0 0.0 -0.0 0.0 0.0 9.11465e-14 5.90844e-15 -1.26267e-13 83.6794 48.7858 -2.97145 -15.1811 -7.6828 28.2896 -0.0280177 -4.62368 -0.651337 -9.6518e-10 1.09927e-09 -2.12688e-10 -1.66875e-09 1.90128e-09 -3.67392e-10 -9.65184e-10 1.09928e-09 -2.1269e-10 7.73091 5.47488 0.417314 -9.65181e-10 1.09928e-09 -2.12681e-10 2.90554 0.965183 0.102902 -9.65171e-10 1.09928e-09 -2.12687e-10 10.2786 0.731801 0.0259123 -9.65181e-10 1.09928e-09 -2.12678e-10 2.22167 -0.733487 -0.20892 9.12064e-14 5.90076e-15 -1.26568e-13 -93.7267 27.084 11.3228 18.7377 -11.0564 -36.3615 0.05051 6.20106 -0.875181 -3.66731e-10 -9.55117e-12 -9.33998e-10 -6.37342e-10 -1.7515e-11 -1.61531e-09 -3.66743e-10 -9.55475e-12 -9.3399e-10 -7.73091 5.47488 -0.417314 -3.66732e-10 -9.55466e-12 -9.33999e-10 -2.90554 0.965183 -0.102902 -3.66743e-10 -9.55428e-12 -9.33999e-10 -10.2786 0.731801 -0.0259123 -3.66724e-10 -9.54943e-12 -9.34006e-10 -2.22167 -0.733487 0.20892 -2.03217e-16 0.0 -3.88251e-19 -5.54154 5.32608 3.28723 0.00258206 0.0472338 0.0245479 -3.008 -13.0132 -10.7478 2.03217e-16 0.0 3.88251e-19 9.27753 -7.90334 -4.18646 0.0861257 23.616 -0.547655 5.11774 -18.4257 13.6216
-4.831 84.0478 37.1624 -2.2355 -2.6373 0.7058 -1.34231 2.87133 1.89628 1.8743 -3.99604 0.596271 -1.15992 2.80721 -1.30876 5.59981 -3.86009 -2.14169 -0.0 0.0 0.0 -0.0 0.0 0.0 7.68268e-14 5.6805e-15 -1.2771e-13 83.0058 48.4735 -2.91657 -15.0893 -7.63405 28.0613 -0.0277946 -4.62014 -0.650826 -6.86112e-10 9.63145e-10 -3.45088e-10 -1.18588e-09 1.66544e-09 -5.96247e-10 -6.86115e-10 9.63153e-10 -3.45091e-10 7.73091 5.47488 0.417314 -6.86114e-10 9.63147e-10 -3.45082e-10 2.90554 0.965183 0.102902 -6.86105e-10 9.63149e-10 -3.45088e-10 10.2786 0.731801 0.0259123 -6.86112e-10 9.63149e-10 -3.45078e-10 2.22167 -0.733487 -0.20892 7.68948e-14 5.67386e-15 -1.27924e-13 -92.9839 26.9071 11.2293 18.6657 -11.0265 -36.1202 0.049423 6.15398 -0.868459 -3.4348e-10 1.13137e-10 -8.45146e-10 -5.96922e-10 1.9484e-10 -1.46139e-09 -3.43495e-10 1.13129e-10 -8.45138e-10 -7.73091 5.47488 -0.417314 -3.43485e-10 1.1313e-10 -8.45149e-10 -2.90554 0.965183 -0.102902 -3.43493e-10 1.1313e-10 -8.4515e-10 -10.2786 0.731801 -0.0259123 -3.43474e-10 1.13138e-10 -8.45152e-10 -2.22167 -0.733487 0.20892 -2.03217e-16 0.0 -3.88251e-19 -5.49253 5.27864 3.21168 0.00251403 0.0352858 0.0237369 -2.96096 -12.9055 -10.6491 2.03217e-16 0.0 3.88251e-19 9.2188 -7.91677 -4.1406 0.0847524 23.4927 -0.543006 5.02325 -18.2727 13.4595
-4.82729 84.0465 37.1427 -2.2324 -2.5972 0.7117 -1.32795 2.82749 1.77008 1.7996 -3.90689 0.557494 -1.16564 2.625 -1.27254 5.47658 -3.60681 -2.0797 -0.0 0.0 0.0 -0.0 0.0 0.0 6.09111e-14 5.54594e-15 -1.23131e-13 79.785 46.7429 -2.70388 -14.6618 -7.41657 26.9999 -0.0253264 -4.48728 -0.631982 -3.76213e-10 7.93737e-10 -4.68483e-10 -6.49716e-10 1.37203e-09 -8.09569e-10 -3.76214e-10 7.93742e-10 -4.68485e-10 7.73091 5.47488 0.417314 -3.76215e-10 7.93737e-10 -4.68477e-10 2.90554 0.965183 0.102902 -3.76208e-10 7.93741e-10 -4.68482e-10 10.2786 0.731801 0.0259123 -3.76213e-10 7.93741e-10 -4.68472e-10 2.22167 -0.733487 -0.20892 6.09705e-14 5.54084e-15 -1.23264e-13 -89.3371 25.9651 10.7258 18.2437 -10.8085 -34.7842 0.0441783 5.92065 -0.835168 -3.0522e-10 2.21502e-10 -7.17327e-10 -5.30402e-10 3.82506e-10 -1.24002e-09 -3.05238e-10 2.21491e-10 -7.17317e-10 -7.73091 5.47488 -0.417314 -3.05229e-10 2.21491e-10 -7.1733e-10 -2.90554 0.965183 -0.102902 -3.05233e-10 2.21491e-10 -7.17332e-10 -10.2786 0.731801 -0.0259123 -3.05216e-10 2.21502e-10 -7.17331e-10 -2.22167 -0.733487 0.20892 -2.03217e-16 0.0 -3.88251e-19 -5.28491 5.01792 3.03721 0.00220643 -0.0380704 0.0200153 -2.75058 -12.3141 -10.2154 2.03217e-16 0.0 3.88251e-19 8.85056 -7.87881 -3.96537 0.0760841 22.8367 -0.521789 4.66324 -17.5845 12.8554
-4.82493 84.045 37.1283 -2.2278 -2.5729 0.7247 -1.31713 2.80983 1.67987 1.756 -3.86151 0.530304 -1.17012 2.507 -1.2499 5.40326 -3.4507 -2.04012 -0.0 0.0 0.0 -0.0 0.0 0.0 5.17195e-14 6.11457e-15 -1.14649e-13 77.846 45.7147 -2.5866 -14.4069 -7.28747 26.3763 -0.0240506 -4.42275 -0.622826 -1.92144e-10 6.84675e-10 -5.40224e-10 -3.31218e-10 1.18315e-09 -9.33659e-10 -1.92143e-10 6.84678e-10 -5.40227e-10 7.73091 5.47488 0.417314 -1.92146e-10 6.84673e-10 -5.40217e-10 2.90554 0.965183 0.102902 -1.9214e-10 6.84678e-10 -5.40223e-10 10.2786 0.731801 0.0259123 -1.92143e-10 6.84678e-10 -5.40214e-10 2.22167 -0.733487 -0.20892 5.17514e-14 6.11108e-15 -1.14748e-13 -87.145 25.3969 10.4093 17.9822 -10.6677 -33.9805 0.040972 5.76752 -0.813349 -2.886e-10 2.54155e-10 -6.08733e-10 -5.01266e-10 4.39273e-10 -1.05188e-09 -2.88619e-10 2.54142e-10 -6.0872e-10 -7.73091 5.47488 -0.417314 -2.88611e-10 2.54142e-10 -6.08736e-10 -2.90554 0.965183 -0.102902 -2.88613e-10 2.54142e-10 -6.08739e-10 -10.2786 0.731801 -0.0259123 -2.88597e-10 2.54155e-10 -6.08736e-10 -2.22167 -0.733487 0.20892 -2.03217e-16 0.0 -3.88251e-19 -5.16319 4.85613 2.92665 0.00202006 -0.080316 0.0178062 -2.62984 -11.9565 -9.96126 2.03217e-16 0.0 3.88251e-19 8.62806 -7.86764 -3.85281 0.0712212 22.4513 -0.509247 4.44987 -17.16 12.4861
